<svg xmlns="http://www.w3.org/2000/svg" viewBox="0 0 64 64" width="64" height="64"><defs>
<radialGradient id="ra-bubbles-b1" cx=".42" cy=".4" r=".6"><stop offset="0" stop-color="#EAF4FF"/><stop offset=".6" stop-color="#9CCBFF"/><stop offset="1" stop-color="#4F95F5"/></radialGradient>
<linearGradient id="ra-bubbles-iri" x1="0" y1="0" x2="1" y2="1"><stop offset="0" stop-color="#FF9FD2"/><stop offset=".4" stop-color="#7CC4FF"/><stop offset=".75" stop-color="#8CF0C4"/><stop offset="1" stop-color="#FFD66B"/></linearGradient>
<linearGradient id="ra-bubbles-gold" x1="0" y1="0" x2="1" y2="1"><stop offset="0" stop-color="#FFF4B8"/><stop offset=".45" stop-color="#FFC93C"/><stop offset="1" stop-color="#F08C00"/></linearGradient>
<linearGradient id="ra-bubbles-peach" x1="0" y1="0" x2="1" y2="1"><stop offset="0" stop-color="#FFD9BF"/><stop offset=".5" stop-color="#FF8A4C"/><stop offset="1" stop-color="#E4572E"/></linearGradient>
<linearGradient id="ra-bubbles-lil" x1="0" y1="0" x2="1" y2="1"><stop offset="0" stop-color="#E7DDFF"/><stop offset=".5" stop-color="#9B7BFF"/><stop offset="1" stop-color="#5B3FD6"/></linearGradient>
<linearGradient id="ra-bubbles-mint" x1="0" y1="0" x2="1" y2="1"><stop offset="0" stop-color="#C9F7E1"/><stop offset=".5" stop-color="#34D399"/><stop offset="1" stop-color="#0E9F6E"/></linearGradient>
<linearGradient id="ra-bubbles-sky" x1="0" y1="0" x2="1" y2="1"><stop offset="0" stop-color="#D5EBFF"/><stop offset=".5" stop-color="#5FA8FF"/><stop offset="1" stop-color="#2563EB"/></linearGradient>
<radialGradient id="ra-bubbles-tyre" cx=".42" cy=".38" r=".7"><stop offset="0" stop-color="#4A4E57"/><stop offset=".7" stop-color="#1B1D22"/><stop offset="1" stop-color="#060708"/></radialGradient>
<radialGradient id="ra-bubbles-rim" cx=".35" cy=".3" r=".8"><stop offset="0" stop-color="#fff"/><stop offset=".5" stop-color="#D6DBE2"/><stop offset="1" stop-color="#7E8794"/></radialGradient>
<filter id="ra-bubbles-sh" x="-30%" y="-30%" width="160%" height="170%"><feDropShadow dx="0" dy="2.5" stdDeviation="2.2" flood-color="#0A0A0A" flood-opacity=".22"/></filter>
</defs><g filter="url(#ra-bubbles-sh)"><circle cx="26" cy="36" r="17" fill="url(#ra-bubbles-b1)"/><circle cx="26" cy="36" r="16.4" fill="none" stroke="url(#ra-bubbles-iri)" stroke-width="2.0"/><ellipse cx="20.1" cy="29.2" rx="5.1" ry="2.9" fill="#fff" transform="rotate(-35 20.1 29.2)"/><circle cx="44" cy="24" r="11" fill="url(#ra-bubbles-b1)"/><circle cx="44" cy="24" r="10.4" fill="none" stroke="url(#ra-bubbles-iri)" stroke-width="1.3"/><ellipse cx="40.1" cy="19.6" rx="3.3" ry="1.9" fill="#fff" transform="rotate(-35 40.1 19.6)"/><circle cx="47" cy="45" r="8" fill="url(#ra-bubbles-b1)"/><circle cx="47" cy="45" r="7.4" fill="none" stroke="url(#ra-bubbles-iri)" stroke-width="1.2"/><ellipse cx="44.2" cy="41.8" rx="2.4" ry="1.4" fill="#fff" transform="rotate(-35 44.2 41.8)"/></g></svg>
