<svg xmlns="http://www.w3.org/2000/svg" viewBox="0 0 400 230" width="400" height="230"><defs>
<linearGradient id="ra-car-silver-body" x1="0" y1="0" x2="0" y2="1"><stop offset="0" stop-color="#FFFFFF"/><stop offset=".45" stop-color="#E7EBF1"/><stop offset="1" stop-color="#9AA5B4"/></linearGradient>
<linearGradient id="ra-car-silver-lower" x1="0" y1="0" x2="0" y2="1"><stop offset="0" stop-color="#9AA5B4" stop-opacity="0"/><stop offset="1" stop-color="#0B1E5B" stop-opacity=".55"/></linearGradient>
<linearGradient id="ra-car-silver-glass" x1="0" y1="0" x2="1" y2="1"><stop offset="0" stop-color="#2B3442"/><stop offset=".55" stop-color="#121822"/><stop offset="1" stop-color="#06090F"/></linearGradient>
<linearGradient id="ra-car-silver-refl" x1="0" y1="0" x2="1" y2="0"><stop offset="0" stop-color="#fff" stop-opacity="0"/><stop offset=".5" stop-color="#fff" stop-opacity=".55"/><stop offset="1" stop-color="#fff" stop-opacity="0"/></linearGradient>
<radialGradient id="ra-car-silver-tyre" cx=".45" cy=".4" r=".65"><stop offset="0" stop-color="#3A3D44"/><stop offset=".7" stop-color="#16181C"/><stop offset="1" stop-color="#050506"/></radialGradient>
<radialGradient id="ra-car-silver-rim" cx=".38" cy=".32" r=".75"><stop offset="0" stop-color="#FFFFFF"/><stop offset=".45" stop-color="#D5DAE1"/><stop offset="1" stop-color="#7C8592"/></radialGradient>
<radialGradient id="ra-car-silver-bub" cx=".5" cy=".5" r=".5"><stop offset=".55" stop-color="#fff" stop-opacity=".04"/><stop offset=".85" stop-color="#E9F4FF" stop-opacity=".28"/><stop offset="1" stop-color="#fff" stop-opacity=".75"/></radialGradient>
<linearGradient id="ra-car-silver-iri" x1="0" y1="0" x2="1" y2="1"><stop offset="0" stop-color="#FFB8E1"/><stop offset=".35" stop-color="#B9E2FF"/><stop offset=".7" stop-color="#C7FFE6"/><stop offset="1" stop-color="#FFE9A8"/></linearGradient>
<linearGradient id="ra-car-silver-drop" x1="0" y1="0" x2="0" y2="1"><stop offset="0" stop-color="#CFEAFF"/><stop offset=".6" stop-color="#5FB2FF"/><stop offset="1" stop-color="#2F7DF0"/></linearGradient>
<radialGradient id="ra-car-silver-foam" cx=".4" cy=".35" r=".7"><stop offset="0" stop-color="#FFFFFF"/><stop offset=".7" stop-color="#F1F5FB"/><stop offset="1" stop-color="#C9D3E2"/></radialGradient>
<radialGradient id="ra-car-silver-head" cx=".5" cy=".5" r=".5"><stop offset="0" stop-color="#FFFBEA"/><stop offset="1" stop-color="#FFD66B"/></radialGradient>
<filter id="ra-car-silver-blur" x="-20%" y="-50%" width="140%" height="200%"><feGaussianBlur stdDeviation="6"/></filter>
<filter id="ra-car-silver-soft" x="-20%" y="-20%" width="140%" height="140%"><feGaussianBlur stdDeviation="1.6"/></filter>
</defs><ellipse cx="205" cy="198" rx="168" ry="11" fill="#000" opacity=".35" filter="url(#ra-car-silver-blur)"/><path d="M34 150 C32 132 40 124 58 120 L98 112 C118 86 140 72 176 68 L246 67 C276 68 296 82 318 104 L352 110 C370 114 378 124 377 140 L375 154 C374 162 369 165 361 165 L334 165 A34 34 0 0 0 266 165 L139 165 A34 34 0 0 0 71 165 L46 165 C38 165 35 160 34 150 Z" fill="url(#ra-car-silver-body)"/><path d="M34 150 C32 132 40 124 58 120 L98 112 C118 86 140 72 176 68 L246 67 C276 68 296 82 318 104 L352 110 C370 114 378 124 377 140 L375 154 C374 162 369 165 361 165 L334 165 A34 34 0 0 0 266 165 L139 165 A34 34 0 0 0 71 165 L46 165 C38 165 35 160 34 150 Z" fill="url(#ra-car-silver-lower)"/><path d="M60 124 C120 112 250 108 350 116" stroke="#fff" stroke-opacity=".75" stroke-width="5" fill="none" stroke-linecap="round" filter="url(#ra-car-silver-soft)"/><path d="M150 74 C190 70 240 70 270 74" stroke="#fff" stroke-opacity=".8" stroke-width="3" fill="none" stroke-linecap="round"/><path d="M112 112 C130 90 148 80 178 77 L244 76 C268 78 286 90 300 108 Z" fill="url(#ra-car-silver-glass)"/><path d="M150 108 L176 79 L196 79 L170 108 Z" fill="url(#ra-car-silver-refl)" opacity=".55"/><path d="M232 108 L248 78 L258 79 L242 108 Z" fill="url(#ra-car-silver-refl)" opacity=".4"/><rect x="203" y="74" width="7" height="36" rx="2" fill="#0B1E5B" opacity=".55"/><path d="M206 112 L206 160 M118 116 L124 160" stroke="#0B1E5B" stroke-opacity=".25" stroke-width="1.5"/><rect x="222" y="122" width="18" height="4" rx="2" fill="#fff" opacity=".6"/><rect x="138" y="124" width="18" height="4" rx="2" fill="#fff" opacity=".6"/><path d="M356 118 C366 119 372 124 373 132 L356 131 Z" fill="url(#ra-car-silver-head)"/><path d="M36 132 C37 126 42 123 50 122 L50 134 Z" fill="#FF5A5F"/><rect x="330" y="146" width="40" height="5" rx="2.5" fill="#0B1E5B" opacity=".35"/><path d="M71 165 A34 34 0 0 1 139 165 Z M266 165 A34 34 0 0 1 334 165 Z" fill="#0A0F1C"/><circle cx="105" cy="165" r="29" fill="url(#ra-car-silver-tyre)"/><circle cx="105" cy="165" r="18" fill="url(#ra-car-silver-rim)"/><rect x="102.8" y="150" width="4.4" height="13" rx="2.2" fill="#9AA3AF" transform="rotate(0 105 165)"/><rect x="102.8" y="150" width="4.4" height="13" rx="2.2" fill="#9AA3AF" transform="rotate(72 105 165)"/><rect x="102.8" y="150" width="4.4" height="13" rx="2.2" fill="#9AA3AF" transform="rotate(144 105 165)"/><rect x="102.8" y="150" width="4.4" height="13" rx="2.2" fill="#9AA3AF" transform="rotate(216 105 165)"/><rect x="102.8" y="150" width="4.4" height="13" rx="2.2" fill="#9AA3AF" transform="rotate(288 105 165)"/><circle cx="105" cy="165" r="5.5" fill="#E5E8EC" stroke="#8B95A3" stroke-width="1"/><path d="M85 151 A 25 25 0 0 1 113 141" stroke="#fff" stroke-opacity=".25" stroke-width="3" fill="none" stroke-linecap="round"/><circle cx="300" cy="165" r="29" fill="url(#ra-car-silver-tyre)"/><circle cx="300" cy="165" r="18" fill="url(#ra-car-silver-rim)"/><rect x="297.8" y="150" width="4.4" height="13" rx="2.2" fill="#9AA3AF" transform="rotate(0 300 165)"/><rect x="297.8" y="150" width="4.4" height="13" rx="2.2" fill="#9AA3AF" transform="rotate(72 300 165)"/><rect x="297.8" y="150" width="4.4" height="13" rx="2.2" fill="#9AA3AF" transform="rotate(144 300 165)"/><rect x="297.8" y="150" width="4.4" height="13" rx="2.2" fill="#9AA3AF" transform="rotate(216 300 165)"/><rect x="297.8" y="150" width="4.4" height="13" rx="2.2" fill="#9AA3AF" transform="rotate(288 300 165)"/><circle cx="300" cy="165" r="5.5" fill="#E5E8EC" stroke="#8B95A3" stroke-width="1"/><path d="M280 151 A 25 25 0 0 1 308 141" stroke="#fff" stroke-opacity=".25" stroke-width="3" fill="none" stroke-linecap="round"/><!--foam--><circle cx="150" cy="66" r="13" fill="url(#ra-car-silver-foam)"/><circle cx="168" cy="58" r="16" fill="url(#ra-car-silver-foam)"/><circle cx="190" cy="56" r="14" fill="url(#ra-car-silver-foam)"/><circle cx="210" cy="60" r="17" fill="url(#ra-car-silver-foam)"/><circle cx="232" cy="58" r="13" fill="url(#ra-car-silver-foam)"/><circle cx="250" cy="64" r="11" fill="url(#ra-car-silver-foam)"/><circle cx="178" cy="70" r="10" fill="url(#ra-car-silver-foam)"/><circle cx="222" cy="70" r="11" fill="url(#ra-car-silver-foam)"/><circle cx="146.1" cy="61.5" r="3.6" fill="#fff"/><circle cx="163.2" cy="52.4" r="4.5" fill="#fff"/><circle cx="185.8" cy="51.1" r="3.9" fill="#fff"/><circle cx="204.9" cy="54.0" r="4.8" fill="#fff"/><circle cx="228.1" cy="53.5" r="3.6" fill="#fff"/><circle cx="246.7" cy="60.1" r="3.1" fill="#fff"/><circle cx="320" cy="122" r="9" fill="url(#ra-car-silver-foam)"/><circle cx="332" cy="128" r="6" fill="url(#ra-car-silver-foam)"/><circle cx="88" cy="126" r="7" fill="url(#ra-car-silver-foam)"/><!--/foam--><!--bubbles--><g opacity="1"><circle cx="70" cy="70" r="16" fill="url(#ra-car-silver-bub)"/><circle cx="70" cy="70" r="15.4" fill="none" stroke="url(#ra-car-silver-iri)" stroke-width="1.44"/><ellipse cx="63.9" cy="63.3" rx="5.1" ry="2.9" fill="#fff" opacity=".85" transform="rotate(-35 63.9 63.3)"/><circle cx="76.7" cy="76.4" r="1.3" fill="#fff" opacity=".7"/></g><g opacity="0.9"><circle cx="40" cy="40" r="9" fill="url(#ra-car-silver-bub)"/><circle cx="40" cy="40" r="8.4" fill="none" stroke="url(#ra-car-silver-iri)" stroke-width="1.00"/><ellipse cx="36.6" cy="36.2" rx="2.9" ry="1.6" fill="#fff" opacity=".85" transform="rotate(-35 36.6 36.2)"/><circle cx="43.8" cy="43.6" r="0.7" fill="#fff" opacity=".7"/></g><g opacity="0.9"><circle cx="110" cy="34" r="11" fill="url(#ra-car-silver-bub)"/><circle cx="110" cy="34" r="10.4" fill="none" stroke="url(#ra-car-silver-iri)" stroke-width="1.00"/><ellipse cx="105.8" cy="29.4" rx="3.5" ry="2.0" fill="#fff" opacity=".85" transform="rotate(-35 105.8 29.4)"/><circle cx="114.6" cy="38.4" r="0.9" fill="#fff" opacity=".7"/></g><g opacity="1"><circle cx="300" cy="40" r="18" fill="url(#ra-car-silver-bub)"/><circle cx="300" cy="40" r="17.4" fill="none" stroke="url(#ra-car-silver-iri)" stroke-width="1.62"/><ellipse cx="293.2" cy="32.4" rx="5.8" ry="3.2" fill="#fff" opacity=".85" transform="rotate(-35 293.2 32.4)"/><circle cx="307.6" cy="47.2" r="1.4" fill="#fff" opacity=".7"/></g><g opacity="0.9"><circle cx="345" cy="72" r="10" fill="url(#ra-car-silver-bub)"/><circle cx="345" cy="72" r="9.4" fill="none" stroke="url(#ra-car-silver-iri)" stroke-width="1.00"/><ellipse cx="341.2" cy="67.8" rx="3.2" ry="1.8" fill="#fff" opacity=".85" transform="rotate(-35 341.2 67.8)"/><circle cx="349.2" cy="76.0" r="0.8" fill="#fff" opacity=".7"/></g><g opacity="0.8"><circle cx="370" cy="30" r="7" fill="url(#ra-car-silver-bub)"/><circle cx="370" cy="30" r="6.4" fill="none" stroke="url(#ra-car-silver-iri)" stroke-width="1.00"/><ellipse cx="367.3" cy="27.1" rx="2.2" ry="1.3" fill="#fff" opacity=".85" transform="rotate(-35 367.3 27.1)"/><circle cx="372.9" cy="32.8" r="0.6" fill="#fff" opacity=".7"/></g><g opacity="0.8"><circle cx="265" cy="22" r="8" fill="url(#ra-car-silver-bub)"/><circle cx="265" cy="22" r="7.4" fill="none" stroke="url(#ra-car-silver-iri)" stroke-width="1.00"/><ellipse cx="262.0" cy="18.6" rx="2.6" ry="1.4" fill="#fff" opacity=".85" transform="rotate(-35 262.0 18.6)"/><circle cx="268.4" cy="25.2" r="0.6" fill="#fff" opacity=".7"/></g><g opacity="0.8"><circle cx="20" cy="96" r="6" fill="url(#ra-car-silver-bub)"/><circle cx="20" cy="96" r="5.4" fill="none" stroke="url(#ra-car-silver-iri)" stroke-width="1.00"/><ellipse cx="17.7" cy="93.5" rx="1.9" ry="1.1" fill="#fff" opacity=".85" transform="rotate(-35 17.7 93.5)"/><circle cx="22.5" cy="98.4" r="0.5" fill="#fff" opacity=".7"/></g><g transform="translate(332 92)" opacity="1.0"><path d="M0 -9.0 C 1.674 -3.6, 5.58 0.36, 5.58 3.2399999999999998 A 5.58 5.58 0 1 1 -5.58 3.2399999999999998 C -5.58 0.36, -1.674 -3.6, 0 -9.0 Z" fill="url(#ra-car-silver-drop)"/><ellipse cx="-2.0" cy="2.2" rx="1.1" ry="2.9" fill="#fff" opacity=".8"/></g><g transform="translate(64 104)" opacity="0.9"><path d="M0 -7.0 C 1.3019999999999998 -2.8000000000000003, 4.34 0.28, 4.34 2.52 A 4.34 4.34 0 1 1 -4.34 2.52 C -4.34 0.28, -1.3019999999999998 -2.8000000000000003, 0 -7.0 Z" fill="url(#ra-car-silver-drop)"/><ellipse cx="-1.6" cy="1.7" rx="0.9" ry="2.2" fill="#fff" opacity=".8"/></g><!--/bubbles--></svg>
