<svg xmlns="http://www.w3.org/2000/svg" viewBox="0 0 64 64" width="64" height="64"><defs>
<radialGradient id="ra-car-b1" cx=".42" cy=".4" r=".6"><stop offset="0" stop-color="#EAF4FF"/><stop offset=".6" stop-color="#9CCBFF"/><stop offset="1" stop-color="#4F95F5"/></radialGradient>
<linearGradient id="ra-car-iri" x1="0" y1="0" x2="1" y2="1"><stop offset="0" stop-color="#FF9FD2"/><stop offset=".4" stop-color="#7CC4FF"/><stop offset=".75" stop-color="#8CF0C4"/><stop offset="1" stop-color="#FFD66B"/></linearGradient>
<linearGradient id="ra-car-gold" x1="0" y1="0" x2="1" y2="1"><stop offset="0" stop-color="#FFF4B8"/><stop offset=".45" stop-color="#FFC93C"/><stop offset="1" stop-color="#F08C00"/></linearGradient>
<linearGradient id="ra-car-peach" x1="0" y1="0" x2="1" y2="1"><stop offset="0" stop-color="#FFD9BF"/><stop offset=".5" stop-color="#FF8A4C"/><stop offset="1" stop-color="#E4572E"/></linearGradient>
<linearGradient id="ra-car-lil" x1="0" y1="0" x2="1" y2="1"><stop offset="0" stop-color="#E7DDFF"/><stop offset=".5" stop-color="#9B7BFF"/><stop offset="1" stop-color="#5B3FD6"/></linearGradient>
<linearGradient id="ra-car-mint" x1="0" y1="0" x2="1" y2="1"><stop offset="0" stop-color="#C9F7E1"/><stop offset=".5" stop-color="#34D399"/><stop offset="1" stop-color="#0E9F6E"/></linearGradient>
<linearGradient id="ra-car-sky" x1="0" y1="0" x2="1" y2="1"><stop offset="0" stop-color="#D5EBFF"/><stop offset=".5" stop-color="#5FA8FF"/><stop offset="1" stop-color="#2563EB"/></linearGradient>
<radialGradient id="ra-car-tyre" cx=".42" cy=".38" r=".7"><stop offset="0" stop-color="#4A4E57"/><stop offset=".7" stop-color="#1B1D22"/><stop offset="1" stop-color="#060708"/></radialGradient>
<radialGradient id="ra-car-rim" cx=".35" cy=".3" r=".8"><stop offset="0" stop-color="#fff"/><stop offset=".5" stop-color="#D6DBE2"/><stop offset="1" stop-color="#7E8794"/></radialGradient>
<filter id="ra-car-sh" x="-30%" y="-30%" width="160%" height="170%"><feDropShadow dx="0" dy="2.5" stdDeviation="2.2" flood-color="#0A0A0A" flood-opacity=".22"/></filter>
</defs><g filter="url(#ra-car-sh)"><path d="M8 40 C8 34 11 32 16 31 L22 23 C24 20 27 19 31 19 L41 19 C45 19 48 21 50 24 L54 31 C58 32 58 35 58 40 L58 44 C58 46 57 47 55 47 L11 47 C9 47 8 46 8 44 Z" fill="url(#ra-car-sky)"/><path d="M24 30 L28 23 C29 22 30 21.5 32 21.5 L40 21.5 C42 21.5 43.5 22.5 44.5 24 L48 30 Z" fill="#1A2230"/><circle cx="19" cy="47" r="6.5" fill="url(#ra-car-tyre)"/><circle cx="47" cy="47" r="6.5" fill="url(#ra-car-tyre)"/><circle cx="19" cy="47" r="2.6" fill="#D6DBE2"/><circle cx="47" cy="47" r="2.6" fill="#D6DBE2"/><path d="M13 33 C25 31 41 31 53 33" stroke="#fff" stroke-opacity=".6" stroke-width="2" fill="none" stroke-linecap="round"/></g></svg>
