<svg xmlns="http://www.w3.org/2000/svg" viewBox="0 0 64 64" width="64" height="64"><defs>
<radialGradient id="ra-tyre-b1" cx=".42" cy=".4" r=".6"><stop offset="0" stop-color="#EAF4FF"/><stop offset=".6" stop-color="#9CCBFF"/><stop offset="1" stop-color="#4F95F5"/></radialGradient>
<linearGradient id="ra-tyre-iri" x1="0" y1="0" x2="1" y2="1"><stop offset="0" stop-color="#FF9FD2"/><stop offset=".4" stop-color="#7CC4FF"/><stop offset=".75" stop-color="#8CF0C4"/><stop offset="1" stop-color="#FFD66B"/></linearGradient>
<linearGradient id="ra-tyre-gold" x1="0" y1="0" x2="1" y2="1"><stop offset="0" stop-color="#FFF4B8"/><stop offset=".45" stop-color="#FFC93C"/><stop offset="1" stop-color="#F08C00"/></linearGradient>
<linearGradient id="ra-tyre-peach" x1="0" y1="0" x2="1" y2="1"><stop offset="0" stop-color="#FFD9BF"/><stop offset=".5" stop-color="#FF8A4C"/><stop offset="1" stop-color="#E4572E"/></linearGradient>
<linearGradient id="ra-tyre-lil" x1="0" y1="0" x2="1" y2="1"><stop offset="0" stop-color="#E7DDFF"/><stop offset=".5" stop-color="#9B7BFF"/><stop offset="1" stop-color="#5B3FD6"/></linearGradient>
<linearGradient id="ra-tyre-mint" x1="0" y1="0" x2="1" y2="1"><stop offset="0" stop-color="#C9F7E1"/><stop offset=".5" stop-color="#34D399"/><stop offset="1" stop-color="#0E9F6E"/></linearGradient>
<linearGradient id="ra-tyre-sky" x1="0" y1="0" x2="1" y2="1"><stop offset="0" stop-color="#D5EBFF"/><stop offset=".5" stop-color="#5FA8FF"/><stop offset="1" stop-color="#2563EB"/></linearGradient>
<radialGradient id="ra-tyre-tyre" cx=".42" cy=".38" r=".7"><stop offset="0" stop-color="#4A4E57"/><stop offset=".7" stop-color="#1B1D22"/><stop offset="1" stop-color="#060708"/></radialGradient>
<radialGradient id="ra-tyre-rim" cx=".35" cy=".3" r=".8"><stop offset="0" stop-color="#fff"/><stop offset=".5" stop-color="#D6DBE2"/><stop offset="1" stop-color="#7E8794"/></radialGradient>
<filter id="ra-tyre-sh" x="-30%" y="-30%" width="160%" height="170%"><feDropShadow dx="0" dy="2.5" stdDeviation="2.2" flood-color="#0A0A0A" flood-opacity=".22"/></filter>
</defs><g filter="url(#ra-tyre-sh)"><circle cx="32" cy="32" r="24" fill="url(#ra-tyre-tyre)"/><rect x="30.5" y="8.5" width="3" height="6" rx="1.2" fill="#2E3138" transform="rotate(0 32 32)"/><rect x="30.5" y="8.5" width="3" height="6" rx="1.2" fill="#2E3138" transform="rotate(30 32 32)"/><rect x="30.5" y="8.5" width="3" height="6" rx="1.2" fill="#2E3138" transform="rotate(60 32 32)"/><rect x="30.5" y="8.5" width="3" height="6" rx="1.2" fill="#2E3138" transform="rotate(90 32 32)"/><rect x="30.5" y="8.5" width="3" height="6" rx="1.2" fill="#2E3138" transform="rotate(120 32 32)"/><rect x="30.5" y="8.5" width="3" height="6" rx="1.2" fill="#2E3138" transform="rotate(150 32 32)"/><rect x="30.5" y="8.5" width="3" height="6" rx="1.2" fill="#2E3138" transform="rotate(180 32 32)"/><rect x="30.5" y="8.5" width="3" height="6" rx="1.2" fill="#2E3138" transform="rotate(210 32 32)"/><rect x="30.5" y="8.5" width="3" height="6" rx="1.2" fill="#2E3138" transform="rotate(240 32 32)"/><rect x="30.5" y="8.5" width="3" height="6" rx="1.2" fill="#2E3138" transform="rotate(270 32 32)"/><rect x="30.5" y="8.5" width="3" height="6" rx="1.2" fill="#2E3138" transform="rotate(300 32 32)"/><rect x="30.5" y="8.5" width="3" height="6" rx="1.2" fill="#2E3138" transform="rotate(330 32 32)"/><circle cx="32" cy="32" r="13" fill="url(#ra-tyre-rim)"/><rect x="30.6" y="21" width="2.8" height="9" rx="1.4" fill="#8E97A4" transform="rotate(0 32 32)"/><rect x="30.6" y="21" width="2.8" height="9" rx="1.4" fill="#8E97A4" transform="rotate(72 32 32)"/><rect x="30.6" y="21" width="2.8" height="9" rx="1.4" fill="#8E97A4" transform="rotate(144 32 32)"/><rect x="30.6" y="21" width="2.8" height="9" rx="1.4" fill="#8E97A4" transform="rotate(216 32 32)"/><rect x="30.6" y="21" width="2.8" height="9" rx="1.4" fill="#8E97A4" transform="rotate(288 32 32)"/><circle cx="32" cy="32" r="3.6" fill="#E9ECEF"/><path d="M15 22 A 20 20 0 0 1 30 11" stroke="#fff" stroke-opacity=".3" stroke-width="3" fill="none" stroke-linecap="round"/></g></svg>
